<svg id="Layer_1" data-name="Layer 1" xmlns="http://www.w3.org/2000/svg" xmlns:xlink="http://www.w3.org/1999/xlink" viewBox="0 0 841.89 595.28"><defs><style>.cls-1{font-size:131.78px;font-family:BrunoAce-Regular, Bruno Ace;}.cls-1,.cls-7{fill:#080b11;}.cls-2{letter-spacing:-0.02em;}.cls-3{fill:url(#linear-gradient);}.cls-4{fill:#5459a7;}.cls-5{fill:url(#linear-gradient-2);}.cls-6{fill:#ef405f;}</style><linearGradient id="linear-gradient" x1="362.53" y1="161.18" x2="459.66" y2="243.61" gradientUnits="userSpaceOnUse"><stop offset="0" stop-color="#00894d"/><stop offset="0.1" stop-color="#0a9a61"/><stop offset="0.23" stop-color="#13aa72"/><stop offset="0.36" stop-color="#18b37d"/><stop offset="0.52" stop-color="#1ab680"/><stop offset="0.66" stop-color="#18b27c"/><stop offset="0.79" stop-color="#12a870"/><stop offset="0.92" stop-color="#08965c"/><stop offset="1" stop-color="#00894d"/></linearGradient><linearGradient id="linear-gradient-2" x1="593.68" y1="269.21" x2="679.87" y2="326.33" gradientUnits="userSpaceOnUse"><stop offset="0" stop-color="#ec008c"/><stop offset="1" stop-color="#f68a55"/></linearGradient></defs><title>Makalsi logo</title><text class="cls-1" transform="translate(106.75 541.13)">Ma<tspan class="cls-2" x="242.73" y="0">k</tspan><tspan x="334.05" y="0">alsi</tspan></text><path class="cls-3" d="M365.1,130.36c7.52,52.48,6.5,111.84-1.42,176.76,0,0,17,30.35,41.42,9.93S490.48,189.4,490.48,189.4C498.14,101.74,430.83,38.61,365.1,130.36Z"/><path class="cls-4" d="M363.7,304.66s-11.91,39.14,10.22,69.5,63.54,47.08,97,21.27l29.22-44c27.61-57.94,53.94-109.71,76.87-145.24,41.41-55.49,59.13-11.86,68.37,67.23,0,0,19.57-120.56-59.29-146.65,0,0-44.79-14.28-76.27,33.37s-91.72,140.18-91.72,140.18C398.18,328.22,380,330.82,363.7,304.66Z"/><path class="cls-5" d="M681.46,402.55s-20-34.47-25.53-62.55-9.14-75.53-9.14-75.53L634.23,206.6c-9.57-24.63-22.9-34.13-43-16.59l-13.19,15.1c7.68,18.22,10.4,46.89,12.76,76.31l8.51,61.35C609.67,385.49,632,412.2,681.46,402.55Z"/><path class="cls-6" d="M488.09,148.7C430.79,35,356.56,90.24,317.32,259.33c0,0-.85,159.42-91.91,150.91s-82-116-65-162.54S240.44,44.31,399,21.05C469.36,15.37,487,110.4,488.09,148.7Z"/><circle class="cls-7" cx="717.69" cy="527.31" r="17.44"/></svg>